<?xml version="1.0" standalone="no"?>
<!DOCTYPE svg PUBLIC "-//W3C//DTD SVG 20010904//EN"
 "http://www.w3.org/TR/2001/REC-SVG-20010904/DTD/svg10.dtd">
<svg version="1.0" xmlns="http://www.w3.org/2000/svg"
 width="1292.000000pt" height="1292.000000pt" viewBox="0 0 1292.000000 1292.000000"
 preserveAspectRatio="xMidYMid meet">
<metadata>
Created by potrace 1.14, written by Peter Selinger 2001-2017
</metadata>
<g transform="translate(0.000000,1292.000000) scale(0.100000,-0.100000)"
fill="#000000" stroke="none">
<path d="M4688 12913 c-2 -5 -4 -322 -3 -705 l1 -697 -1371 1 -1370 0 -3
-3959 -2 -3959 1372 0 1373 0 0 -1794 1 -1795 389 -3 390 -2 -1 1794 c0 1274
3 1796 10 1798 6 2 454 3 996 3 l985 -1 0 -1794 1 -1795 389 -3 390 -2 0 1794
c-1 1608 1 1795 15 1798 8 2 626 3 1373 3 l1357 -1 0 3958 0 3958 -22 1 c-13
0 -631 0 -1373 0 l-1351 0 1 705 0 704 -390 0 -390 0 0 -704 1 -704 -996 0
-996 0 0 701 0 702 -386 3 c-213 1 -388 -1 -390 -5z m754 -2277 c81 -1 148 3
148 7 0 5 5 5 12 1 16 -10 308 -11 308 -1 0 5 5 5 12 1 16 -10 308 -11 308 -1
0 5 5 5 12 1 16 -10 308 -11 308 -1 0 5 5 5 12 1 16 -10 308 -11 308 -1 0 5 5
5 12 1 16 -10 308 -11 308 -1 0 5 5 5 12 1 16 -10 308 -11 308 -1 0 5 5 5 12
1 7 -4 591 -8 1298 -8 l1285 -1 0 -3082 1 -3083 -36 0 c-257 -4 -7241 -1
-7247 3 -4 3 -8 1390 -8 3084 l0 3078 1228 0 c675 0 1227 4 1227 8 0 5 5 5 12
1 7 -4 79 -8 160 -8z"/>
</g>
</svg>
