<?xml version="1.0" standalone="no"?>
<!DOCTYPE svg PUBLIC "-//W3C//DTD SVG 20010904//EN"
 "http://www.w3.org/TR/2001/REC-SVG-20010904/DTD/svg10.dtd">
<svg version="1.0" xmlns="http://www.w3.org/2000/svg"
 width="700.000000pt" height="700.000000pt" viewBox="0 0 700.000000 700.000000"
 preserveAspectRatio="xMidYMid meet">
<metadata>
Created by potrace 1.14, written by Peter Selinger 2001-2017
</metadata>
<g transform="translate(0.000000,700.000000) scale(0.100000,-0.100000)"
fill="#000000" stroke="none">
<path d="M2972 5938 c-5 -7 -60 -140 -121 -294 l-111 -281 0 -367 0 -366 -125
0 -125 0 0 173 c0 166 -1 175 -26 225 -31 63 -85 98 -169 112 -31 5 -64 15
-73 22 -24 20 -42 73 -42 123 l0 45 95 0 c83 0 96 2 105 19 14 26 14 456 0
482 -10 18 -24 19 -255 19 -231 0 -245 -1 -255 -19 -15 -29 -14 -473 2 -489 7
-7 45 -12 99 -12 l86 0 7 -81 c8 -99 22 -135 69 -176 36 -31 74 -46 149 -58
24 -4 46 -16 62 -36 26 -30 26 -34 26 -190 l0 -159 -162 -2 -163 -3 -37 -70
c-74 -140 -130 -346 -143 -530 -5 -65 -34 -195 -106 -472 -54 -209 -99 -397
-99 -417 0 -25 6 -38 19 -46 12 -6 112 -10 255 -10 l236 0 0 -443 c0 -331 3
-446 12 -455 9 -9 102 -12 355 -12 l343 0 0 -505 0 -505 -498 0 c-374 0 -501
-3 -510 -12 -16 -16 -16 -70 0 -86 17 -17 3949 -17 3966 0 16 16 16 70 0 86
-8 8 -56 12 -150 12 l-138 0 0 595 c0 582 0 595 -20 615 -22 22 -51 26 -81 10
-18 -10 -19 -28 -19 -615 l0 -605 -145 0 -145 0 0 1158 c0 1110 -1 1160 -18
1175 -23 21 -66 22 -86 1 -14 -14 -16 -134 -16 -1175 l0 -1159 -145 0 -145 0
0 1436 c0 1562 1 1535 -56 1732 -29 101 -88 242 -116 277 -19 24 -24 25 -129
25 l-109 0 0 123 0 122 51 30 c113 66 215 213 244 352 43 201 -10 388 -150
528 -116 117 -235 165 -406 165 -165 0 -291 -50 -400 -159 -175 -175 -218
-443 -107 -669 39 -79 126 -175 197 -217 l51 -30 0 -122 0 -123 -250 0 -250 0
0 364 0 364 -112 284 c-61 155 -115 289 -121 296 -5 6 -26 12 -47 12 -21 0
-42 -6 -48 -12z m1220 -129 c162 -54 279 -189 310 -359 32 -170 -67 -363 -233
-458 -68 -39 -69 -42 -69 -228 l0 -134 -140 0 -140 0 0 151 c0 83 -4 159 -10
169 -5 10 -31 29 -57 42 -111 54 -213 197 -236 331 -27 159 55 337 199 433
113 74 254 94 376 53z m-1922 -224 l0 -145 -145 0 -145 0 0 145 0 145 145 0
145 0 0 -145z m833 -73 c75 -193 77 -201 77 -285 l0 -87 -165 0 -165 0 0 77
c0 72 5 88 82 285 45 114 85 208 88 208 3 0 40 -90 83 -198z m80 -594 c4 -62
7 -152 7 -200 l0 -88 -170 0 -170 0 0 200 0 200 163 0 164 0 6 -112z m1314
-475 c43 -97 78 -213 97 -322 14 -84 16 -257 16 -1528 l0 -1433 -746 0 c-730
0 -746 0 -723 19 13 10 283 217 599 460 551 424 575 444 578 477 4 45 -12 64
-54 64 -29 0 -119 -66 -644 -470 -336 -259 -613 -470 -615 -470 -3 0 -5 229
-5 509 l0 510 -22 15 c-19 14 -70 16 -355 16 l-332 0 -3 445 c-3 383 -5 447
-18 455 -8 5 -117 10 -242 10 -126 0 -228 4 -228 9 0 4 41 164 90 354 53 203
90 365 90 394 0 126 44 318 105 466 l37 87 1173 0 1172 0 30 -67z"/>
<path d="M4019 5531 c-18 -15 -20 -27 -17 -151 l3 -134 28 -16 c24 -13 30 -13
55 0 l27 16 3 135 c2 110 0 138 -12 148 -23 19 -65 20 -87 2z"/>
<path d="M2487 3897 c-45 -45 8 -221 94 -305 83 -82 197 -115 321 -94 170 29
286 154 295 317 2 39 0 76 -5 82 -4 7 -23 15 -41 17 -44 5 -71 -22 -71 -69 0
-137 -163 -262 -296 -226 -94 25 -166 106 -187 209 -7 34 -18 67 -24 73 -19
19 -64 18 -86 -4z"/>
<path d="M3811 2374 c-405 -305 -421 -318 -421 -350 0 -56 45 -80 96 -51 12 7
204 149 428 317 402 301 406 305 406 340 0 44 -15 60 -56 60 -26 0 -106 -56
-453 -316z"/>
<path d="M5280 5124 c-216 -58 -324 -310 -221 -518 37 -75 91 -128 170 -165
49 -23 69 -26 156 -26 87 0 107 3 156 26 79 37 133 90 171 167 31 62 33 74 33
167 0 82 -4 109 -22 148 -78 169 -257 251 -443 201z m207 -133 c77 -39 142
-136 143 -212 0 -85 -61 -182 -142 -226 -45 -24 -161 -24 -205 0 -75 40 -132
122 -141 204 -11 102 73 217 188 254 37 12 113 3 157 -20z"/>
<path d="M1295 2161 c-51 -23 -118 -98 -133 -149 -15 -51 -15 -134 0 -186 16
-55 99 -138 154 -154 52 -15 135 -15 186 0 51 15 126 82 149 133 25 55 25 175
0 230 -23 52 -74 103 -126 126 -55 25 -175 25 -230 0z m183 -121 c42 -26 72
-76 72 -120 0 -44 -30 -94 -72 -120 -117 -71 -259 71 -188 188 42 68 124 91
188 52z"/>
</g>
</svg>
